<svg width="24" height="24" viewBox="0 0 24 24" fill="none" xmlns="http://www.w3.org/2000/svg">
<path d="M19.9324 2.8313C19.6084 2.55655 19.0995 2.51723 18.5733 2.72848H18.5725C18.0191 2.95053 2.90772 9.43226 2.29255 9.69707C2.18066 9.73595 1.20348 10.1006 1.30414 10.9127C1.39399 11.645 2.17937 11.9482 2.27527 11.9832L6.11705 13.2987C6.37193 14.1471 7.31153 17.2774 7.51932 17.9461C7.64892 18.363 7.86017 18.9108 8.23039 19.0235C8.55526 19.1488 8.87839 19.0343 9.08748 18.8702L11.4363 16.6916L15.2279 19.6486L15.3182 19.7026C15.5757 19.8167 15.8224 19.8737 16.0578 19.8737C16.2397 19.8737 16.4142 19.8396 16.581 19.7713C17.149 19.538 17.3763 18.9967 17.4 18.9354L20.2322 4.21413C20.405 3.42789 20.1648 3.02786 19.9324 2.8313ZM9.50522 13.8248L8.20922 17.2808L6.91322 12.9608L16.8492 5.61683L9.50522 13.8248Z" fill="#9A8661"/>
</svg>
