<svg width="24" height="24" viewBox="0 0 24 24" fill="none" xmlns="http://www.w3.org/2000/svg">
<path d="M2.40229 21.6004L3.70021 16.8311C2.84498 15.365 2.39566 13.6977 2.39845 12.0004C2.39845 6.69831 6.69637 2.40039 11.9984 2.40039C17.3005 2.40039 21.5984 6.69831 21.5984 12.0004C21.5984 17.3025 17.3005 21.6004 11.9984 21.6004C10.3019 21.6031 8.63524 21.1541 7.16965 20.2996L2.40229 21.6004ZM8.53381 7.49607C8.40983 7.50376 8.28869 7.53642 8.17765 7.59207C8.07351 7.65104 7.97844 7.72476 7.89541 7.81095C7.78021 7.91943 7.71493 8.01351 7.64485 8.10471C7.29004 8.56646 7.09919 9.13327 7.10245 9.71559C7.10437 10.186 7.22725 10.6439 7.41925 11.0721C7.81189 11.938 8.45797 12.8548 9.31141 13.7044C9.51685 13.9089 9.71748 14.1143 9.93349 14.3053C10.9927 15.2379 12.255 15.9105 13.6199 16.2695L14.1661 16.353C14.3437 16.3626 14.5213 16.3492 14.6999 16.3405C14.9795 16.3261 15.2525 16.2504 15.4996 16.1188C15.6253 16.054 15.748 15.9836 15.8672 15.9076C15.8672 15.9076 15.9085 15.8807 15.9872 15.8212C16.1168 15.7252 16.1965 15.657 16.304 15.5447C16.3837 15.4621 16.4528 15.3652 16.5056 15.2548C16.5805 15.0983 16.6554 14.7997 16.6861 14.5511C16.7092 14.361 16.7024 14.2573 16.6996 14.193C16.6957 14.0903 16.6103 13.9837 16.5172 13.9386L15.9584 13.6881C15.9584 13.6881 15.1232 13.3242 14.6135 13.0919C14.5597 13.0685 14.5021 13.0551 14.4436 13.0525C14.3779 13.0458 14.3115 13.0532 14.2489 13.0742C14.1863 13.0952 14.129 13.1294 14.0807 13.1745V13.1725C14.0759 13.1725 14.0116 13.2273 13.3175 14.0682C13.2776 14.1218 13.2228 14.1622 13.1599 14.1844C13.0969 14.2067 13.0288 14.2097 12.9642 14.193C12.9017 14.1763 12.8404 14.1551 12.7808 14.1297C12.6618 14.0797 12.6205 14.0605 12.5389 14.025L12.5341 14.0231C11.9849 13.7833 11.4764 13.4594 11.0269 13.0631C10.906 12.9575 10.7936 12.8423 10.6784 12.7309C10.3008 12.3693 9.97161 11.9601 9.69924 11.5137L9.6426 11.4225C9.60192 11.3612 9.56903 11.2951 9.54469 11.2257C9.50821 11.0845 9.60325 10.9713 9.60325 10.9713C9.60325 10.9713 9.83652 10.7159 9.945 10.5777C10.0353 10.4628 10.1196 10.3433 10.1975 10.2196C10.3108 10.0372 10.3463 9.84999 10.2868 9.70503C10.018 9.04839 9.73956 8.39463 9.45349 7.74567C9.39685 7.61703 9.22885 7.52487 9.07621 7.50663C9.02437 7.50087 8.97253 7.49511 8.92069 7.49127C8.79176 7.48486 8.66257 7.48614 8.53381 7.49511V7.49607Z" fill="#9A8661"/>
</svg>
